
<svg xmlns="http://www.w3.org/2000/svg" style="display:none">
  <defs>
    
  </defs>

  <symbol id="i-camera" viewBox="0 0 24 24" fill="none" stroke="currentColor" stroke-width="2" stroke-linecap="round" stroke-linejoin="round">
    <path d="M14.5 4h-5L7 7H4a2 2 0 0 0-2 2v9a2 2 0 0 0 2 2h16a2 2 0 0 0 2-2V9a2 2 0 0 0-2-2h-3l-2.5-3Z"></path>
    <circle cx="12" cy="13" r="4"></circle>
  </symbol>

  <symbol id="i-bar-chart" viewBox="0 0 24 24" fill="none" stroke="currentColor" stroke-width="2" stroke-linecap="round" stroke-linejoin="round">
    <path d="M3 3v18h18"></path>
    <rect x="7" y="13" width="3" height="5"></rect>
    <rect x="12" y="8" width="3" height="10"></rect>
    <rect x="17" y="5" width="3" height="13"></rect>
  </symbol>

  <symbol id="i-settings" viewBox="0 0 24 24" fill="none" stroke="currentColor" stroke-width="2" stroke-linecap="round" stroke-linejoin="round">
    <path d="M12.22 2h-.44a2 2 0 0 0-2 2v.18a2 2 0 0 1-1 1.73l-.43.25a2 2 0 0 1-2 0l-.15-.08a2 2 0 0 0-2.73.73l-.22.38a2 2 0 0 0 .73 2.73l.15.1a2 2 0 0 1 1 1.72v.51a2 2 0 0 1-1 1.74l-.15.09a2 2 0 0 0-.73 2.73l.22.38a2 2 0 0 0 2.73.73l.15-.08a2 2 0 0 1 2 0l.43.25a2 2 0 0 1 1 1.73V20a2 2 0 0 0 2 2h.44a2 2 0 0 0 2-2v-.18a2 2 0 0 1 1-1.73l.43-.25a2 2 0 0 1 2 0l.15.08a2 2 0 0 0 2.73-.73l.22-.39a2 2 0 0 0-.73-2.73l-.15-.08a2 2 0 0 1-1-1.74v-.5a2 2 0 0 1 1-1.74l.15-.09a2 2 0 0 0 .73-2.73l-.22-.38a2 2 0 0 0-2.73-.73l-.15.08a2 2 0 0 1-2 0l-.43-.25a2 2 0 0 1-1-1.73V4a2 2 0 0 0-2-2Z"></path>
    <circle cx="12" cy="12" r="3"></circle>
  </symbol>

  <symbol id="i-circle-dot" viewBox="0 0 24 24" fill="none" stroke="currentColor" stroke-width="2" stroke-linecap="round" stroke-linejoin="round">
    <circle cx="12" cy="12" r="10"></circle>
    <circle cx="12" cy="12" r="3" fill="currentColor"></circle>
  </symbol>

  <symbol id="i-chevron-left" viewBox="0 0 24 24" fill="none" stroke="currentColor" stroke-width="2" stroke-linecap="round" stroke-linejoin="round">
    <path d="m15 18-6-6 6-6"></path>
  </symbol>

  <symbol id="i-chevron-right" viewBox="0 0 24 24" fill="none" stroke="currentColor" stroke-width="2" stroke-linecap="round" stroke-linejoin="round">
    <path d="m9 18 6-6-6-6"></path>
  </symbol>

  <symbol id="i-trending-up" viewBox="0 0 24 24" fill="none" stroke="currentColor" stroke-width="2" stroke-linecap="round" stroke-linejoin="round">
    <polyline points="22 7 13.5 15.5 8.5 10.5 2 17"></polyline>
    <polyline points="16 7 22 7 22 13"></polyline>
  </symbol>

  <symbol id="i-trending-down" viewBox="0 0 24 24" fill="none" stroke="currentColor" stroke-width="2" stroke-linecap="round" stroke-linejoin="round">
    <polyline points="22 17 13.5 8.5 8.5 13.5 2 7"></polyline>
    <polyline points="16 17 22 17 22 11"></polyline>
  </symbol>

  <symbol id="i-arrow-right" viewBox="0 0 24 24" fill="none" stroke="currentColor" stroke-width="2" stroke-linecap="round" stroke-linejoin="round">
    <path d="M5 12h14M13 5l7 7-7 7"></path>
  </symbol>

  <symbol id="i-rotate-ccw" viewBox="0 0 24 24" fill="none" stroke="currentColor" stroke-width="2" stroke-linecap="round" stroke-linejoin="round">
    <path d="M3 12a9 9 0 1 0 9-9 9.74 9.74 0 0 0-6.74 2.74L3 8"></path>
    <path d="M3 3v5h5"></path>
  </symbol>

  <symbol id="i-check-circle" viewBox="0 0 24 24" fill="none" stroke="currentColor" stroke-width="2" stroke-linecap="round" stroke-linejoin="round">
    <circle cx="12" cy="12" r="10"></circle>
    <path d="m9 12 2 2 4-4"></path>
  </symbol>

  <symbol id="i-image" viewBox="0 0 24 24" fill="none" stroke="currentColor" stroke-width="2" stroke-linecap="round" stroke-linejoin="round">
    <rect width="18" height="18" x="3" y="3" rx="2" ry="2"></rect>
    <circle cx="9" cy="9" r="2"></circle>
    <path d="m21 15-3.086-3.086a2 2 0 0 0-2.828 0L6 21"></path>
  </symbol>

  <symbol id="i-info" viewBox="0 0 24 24" fill="none" stroke="currentColor" stroke-width="2" stroke-linecap="round" stroke-linejoin="round">
    <circle cx="12" cy="12" r="10"></circle>
    <path d="M12 16v-4M12 8h.01"></path>
  </symbol>

  <symbol id="i-alert" viewBox="0 0 24 24" fill="none" stroke="currentColor" stroke-width="2" stroke-linecap="round" stroke-linejoin="round">
    <path d="m21.73 18-8-14a2 2 0 0 0-3.48 0l-8 14A2 2 0 0 0 4 21h16a2 2 0 0 0 1.73-3Z"></path>
    <path d="M12 9v4M12 17h.01"></path>
  </symbol>

  <symbol id="i-x" viewBox="0 0 24 24" fill="none" stroke="currentColor" stroke-width="2" stroke-linecap="round" stroke-linejoin="round">
    <path d="M18 6 6 18M6 6l12 12"></path>
  </symbol>

  <symbol id="i-plus" viewBox="0 0 24 24" fill="none" stroke="currentColor" stroke-width="2" stroke-linecap="round" stroke-linejoin="round">
    <path d="M5 12h14M12 5v14"></path>
  </symbol>

  <symbol id="i-calendar" viewBox="0 0 24 24" fill="none" stroke="currentColor" stroke-width="2" stroke-linecap="round" stroke-linejoin="round">
    <rect width="18" height="18" x="3" y="4" rx="2"></rect>
    <path d="M16 2v4M8 2v4M3 10h18"></path>
  </symbol>

  <symbol id="i-clock" viewBox="0 0 24 24" fill="none" stroke="currentColor" stroke-width="2" stroke-linecap="round" stroke-linejoin="round">
    <circle cx="12" cy="12" r="10"></circle>
    <polyline points="12 6 12 12 16 14"></polyline>
  </symbol>

  <symbol id="i-user" viewBox="0 0 24 24" fill="none" stroke="currentColor" stroke-width="2" stroke-linecap="round" stroke-linejoin="round">
    <path d="M19 21v-2a4 4 0 0 0-4-4H9a4 4 0 0 0-4 4v2"></path>
    <circle cx="12" cy="7" r="4"></circle>
  </symbol>

  <symbol id="i-ruler" viewBox="0 0 24 24" fill="none" stroke="currentColor" stroke-width="2" stroke-linecap="round" stroke-linejoin="round">
    <path d="M21.3 15.3a2.4 2.4 0 0 1 0 3.4l-2.6 2.6a2.4 2.4 0 0 1-3.4 0L2.7 8.7a2.41 2.41 0 0 1 0-3.4l2.6-2.6a2.41 2.41 0 0 1 3.4 0Z"></path>
    <path d="m14.5 12.5 2-2M11.5 9.5l2-2M8.5 6.5l2-2M17.5 15.5l2-2"></path>
  </symbol>

</svg>